PathFileType	4	(X/Y/Z)	subject01_walk1.trc
DataRate	CameraRate	NumFrames	NumMarkers	Units	OrigDataRate	OrigDataStartFrame	OrigNumFrames
60.00	60.00	       8	41	mm	60.00	563	       900
Frame#	Time	R.ASIS			L.ASIS			V.Sacral			R.Thigh.Upper			R.Thigh.Front			R.Thigh.Rear			L.Thigh.Upper			L.Thigh.Front			L.Thigh.Rear			R.Shank.Upper			R.Shank.Front			R.Shank.Rear			L.Shank.Upper			L.Shank.Front			L.Shank.Rear			R.Heel			R.Midfoot.Sup			R.Midfoot.Lat			R.Toe.Tip			L.Heel			L.Midfoot.Sup			L.Midfoot.Lat			L.Toe.Tip			Sternum			R.Acromium			L.Acromium			R.Bicep			L.Bicep			R.Elbow			L.Elbow			R.Wrist.Med			R.Wrist.Lat			L.Wrist.Med			L.Wrist.Lat			R.Toe.Lat			R.Toe.Med			L.Toe.Lat			L.Toe.Med			R.Temple			L.Temple			Top.Head			
		X1	Y1	Z1	X2	Y2	Z2	X3	Y3	Z3	X4	Y4	Z4	X5	Y5	Z5	X6	Y6	Z6	X7	Y7	Z7	X8	Y8	Z8	X9	Y9	Z9	X10	Y10	Z10	X11	Y11	Z11	X12	Y12	Z12	X13	Y13	Z13	X14	Y14	Z14	X15	Y15	Z15	X16	Y16	Z16	X17	Y17	Z17	X18	Y18	Z18	X19	Y19	Z19	X20	Y20	Z20	X21	Y21	Z21	X22	Y22	Z22	X23	Y23	Z23	X24	Y24	Z24	X25	Y25	Z25	X26	Y26	Z26	X27	Y27	Z27	X28	Y28	Z28	X29	Y29	Z29	X30	Y30	Z30	X31	Y31	Z31	X32	Y32	Z32	X33	Y33	Z33	X34	Y34	Z34	X35	Y35	Z35	X36	Y36	Z36	X37	Y37	Z37	X38	Y38	Z38	X39	Y39	Z39	X40	Y40	Z40	X41	Y41	Z41	

563	9.367000	633.381040	1063.533690	154.227430	623.729920	1041.304690	-106.184440	430.514430	1048.820680	43.244720	670.089170	753.516660	207.958440	737.331910	709.587340	109.686110	694.010380	633.907780	196.844510	551.273860	740.261900	-163.733280	650.804570	696.651120	-119.893200	548.236690	629.941160	-154.591050	668.907100	456.858090	190.219410	742.105160	426.012630	128.555620	689.900940	372.105160	196.133000	467.331300	450.288120	-159.245060	465.538670	380.632630	-106.208880	417.889430	438.472170	-159.770100	619.464970	68.932860	116.277080	761.796140	81.493730	79.624440	756.699280	63.635890	187.136860	906.946470	56.729240	116.995840	140.886200	282.765750	-54.572410	230.151350	138.925610	-38.282820	202.525970	144.747740	-131.961000	265.315950	38.986030	-70.868630	649.802190	1367.222780	45.029710	537.636290	1436.332760	254.566270	587.463070	1483.827270	-157.425400	534.267520	1232.027340	290.127010	616.704960	1246.964840	-195.717000	485.327120	1130.289430	307.414150	574.571230	1150.987550	-242.131580	613.973450	893.102170	312.801390	564.280520	878.942930	355.016200	691.631100	929.478640	-185.711400	656.532530	918.833860	-251.956280	845.653500	41.754810	197.196180	849.144290	52.564620	87.624600	214.653210	84.608930	-144.067030	237.877300	72.140370	-42.839670	682.018250	1628.029170	136.195280	685.336300	1636.154170	-2.760590	610.478820	1790.270510	77.985380	
564	9.383000	633.975770	1066.174190	156.801880	623.361570	1043.951660	-103.124460	430.527250	1052.029540	46.167960	664.188900	754.512150	209.803890	730.151610	708.187260	111.820030	685.263000	633.975340	198.143940	561.969120	741.825620	-162.071470	663.315670	702.304020	-119.581600	563.995910	630.630430	-153.131480	655.951050	456.819400	191.003310	729.135740	424.906860	130.486710	674.041380	371.611150	196.662870	488.323940	455.050630	-158.718580	487.769130	386.387910	-106.312480	438.926790	444.574340	-158.599170	600.520140	68.867980	115.965300	743.060120	81.294100	79.371800	737.663640	63.546210	186.821350	887.836980	55.322560	116.867240	160.097170	298.761320	-49.819060	243.935930	150.668840	-37.357670	214.815050	159.013060	-130.356050	274.684110	44.860670	-72.511510	649.523190	1369.873780	46.332280	540.567500	1439.220580	257.294860	585.877810	1487.266600	-155.339920	540.369450	1235.426390	293.154880	613.306880	1249.914920	-194.233730	490.611360	1132.959350	311.378600	570.321040	1154.384280	-239.254490	619.293330	895.454650	315.943970	571.505620	882.054930	358.417630	684.190430	930.823360	-187.283130	649.975770	921.408080	-253.905580	826.241820	41.608310	196.432690	830.222720	51.691750	87.375220	224.738630	102.631290	-143.108890	249.967560	83.346020	-43.650760	682.708190	1630.946660	138.545180	684.810120	1639.871460	-0.430600	611.191100	1793.460080	81.129640	
565	9.400000	633.773500	1069.164920	159.330000	622.243040	1047.573000	-100.766630	430.059720	1055.535640	48.865510	655.249760	754.980410	211.961610	722.186400	707.363890	113.166820	675.730290	634.398130	199.575900	572.236690	744.618650	-160.475920	674.949340	708.859740	-118.379810	579.148560	633.800110	-151.964890	641.396060	457.385190	191.279770	714.025940	423.972470	132.151370	659.837100	372.162900	197.490910	509.926060	461.836820	-158.118100	504.637880	390.434420	-104.610210	459.996000	451.299260	-157.178130	581.408200	68.871230	115.773740	724.027590	81.144840	79.082010	718.494140	63.381560	186.490190	868.692810	54.267030	116.749730	179.364330	309.894100	-44.713220	262.321530	161.040990	-36.031620	231.804690	171.214100	-128.485950	291.552920	53.307420	-73.924050	650.418270	1373.832640	47.085640	543.357180	1442.367920	259.900700	583.225340	1490.986450	-153.371220	545.272950	1239.174190	295.434480	607.583800	1252.664920	-192.905230	496.008480	1136.006960	315.220890	564.114620	1158.051510	-237.519440	626.049560	899.109130	318.698150	578.420960	885.661740	362.102750	675.777220	932.660340	-188.715550	640.550050	923.983340	-254.815030	807.892760	41.469930	195.859020	811.252010	51.047180	87.192120	240.417360	119.561610	-141.310060	268.733890	93.853760	-44.030830	682.396670	1634.176760	140.524400	684.665410	1643.069950	1.549920	611.233400	1797.129760	83.224740	
566	9.417000	632.903930	1071.842160	161.922490	622.227970	1052.699100	-98.023260	429.235440	1059.195070	51.233890	650.423030	755.960080	213.535740	713.401490	706.320310	114.688140	664.411500	634.603030	201.617170	582.221370	748.235960	-159.116930	686.211120	716.743650	-116.843510	594.060670	638.504760	-150.948760	626.806090	458.022830	193.008480	698.178960	423.752530	133.335220	643.654850	371.963290	198.697690	530.338070	468.604580	-156.400070	524.256470	396.641170	-104.308960	480.982700	457.903500	-155.755450	562.186830	68.982760	115.823040	704.839660	81.049230	78.881640	699.343020	63.153210	186.328320	849.591190	53.442310	116.709670	198.966770	316.272370	-39.813090	284.559540	169.169390	-34.272690	252.716140	180.255860	-126.306840	314.670990	61.981480	-74.483720	650.945740	1377.570310	47.034870	543.903080	1445.815550	261.446110	580.842220	1494.634890	-152.210720	547.940920	1242.433590	298.551480	603.856810	1257.083740	-192.708500	501.326690	1139.366330	318.853490	558.706420	1162.357180	-237.631500	632.186280	903.197510	321.690700	585.117680	889.311340	365.727720	667.422180	935.037110	-189.955510	631.449220	927.236880	-255.655590	788.219600	40.510490	197.108490	792.328670	50.623130	87.142640	261.417940	129.939250	-139.580780	292.475800	102.287070	-43.634350	683.256160	1637.669560	142.179470	685.112490	1647.095210	2.927060	611.643920	1800.710080	85.432100	
567	9.433000	631.834590	1074.223750	164.589190	621.680790	1057.480100	-95.543320	428.196010	1062.849240	53.182190	640.224670	756.330750	215.488160	704.519170	705.079530	116.530040	653.857240	634.744630	203.663820	591.920040	752.223570	-157.854130	696.631470	725.048400	-114.738750	607.711240	643.014950	-150.149140	611.795530	458.251280	194.435960	683.631230	423.932340	135.403090	627.091800	372.287380	199.756850	549.685300	473.746090	-153.849900	546.343020	402.854890	-103.727140	501.810880	463.627530	-154.516250	542.872070	69.198360	116.072080	685.611510	81.017440	78.833850	680.345400	62.912540	186.372270	830.519350	52.761520	116.744970	219.390370	318.249240	-35.587730	309.807100	174.397030	-32.077190	276.937290	185.552990	-123.888950	342.502290	68.798760	-73.712950	649.147460	1379.646360	47.623830	548.312990	1449.530030	263.280360	576.114010	1497.989500	-150.646870	552.754390	1245.817020	300.730900	599.313110	1260.280880	-192.307240	506.414030	1142.894530	322.260470	550.105710	1166.022830	-235.147920	639.696350	907.927730	323.545100	592.767580	894.700990	368.686460	659.067870	937.973390	-190.447330	622.882320	930.362300	-256.395390	771.082030	39.935600	197.280840	773.597600	50.449760	87.206660	287.411100	131.153500	-138.552170	319.683230	107.778450	-42.256410	683.978820	1640.856080	143.111010	685.253230	1650.568480	4.082050	612.406740	1803.987670	86.886990	
568	9.450000	630.005740	1076.899170	166.859800	620.262080	1062.669070	-92.969580	427.036740	1066.339970	54.694030	631.880370	756.493040	217.154540	693.760500	703.677490	118.603740	641.329960	634.660950	206.026440	601.138430	756.345030	-156.497040	706.819890	732.641660	-113.692700	620.897220	648.237370	-148.488740	594.556150	458.973390	196.064740	667.532170	423.691410	137.294310	609.279480	372.793120	201.559860	569.788760	479.049770	-153.234120	566.269840	407.588130	-101.659360	522.210020	468.021330	-153.445620	523.512330	69.498830	116.359340	666.427430	81.039880	78.936840	661.524110	62.675620	186.533860	811.426150	52.165670	116.814670	240.828570	316.107180	-32.350050	337.339540	176.403120	-29.475100	304.195280	187.102510	-121.473110	373.921880	72.786450	-71.574560	646.841250	1382.431270	48.085300	550.531620	1453.673580	264.668150	573.463500	1501.374510	-150.147930	557.263120	1249.755250	302.793790	594.115720	1263.778200	-192.494290	511.201570	1146.385500	325.475800	545.191770	1170.011230	-234.964190	646.592960	912.576050	325.738310	601.612550	898.822020	370.788570	650.705630	940.090390	-192.265210	614.076420	933.971310	-257.279510	750.350280	39.044690	196.624360	755.084590	50.477050	87.326290	317.693600	126.564830	-137.699710	349.586060	110.167340	-39.955330	684.251770	1644.084470	143.329730	685.188660	1653.664670	4.775820	612.313600	1806.679810	87.969620	
569	9.467000	627.693790	1078.506960	169.335490	619.723510	1066.684570	-90.774990	425.758240	1069.530270	55.815440	622.486210	757.341920	217.903960	684.122250	701.972170	120.515100	629.644230	635.061950	207.520750	609.650700	760.603820	-155.120350	715.447140	740.204100	-111.987620	632.694950	652.907650	-148.241040	578.056700	459.469730	197.137270	651.139040	423.148710	139.221820	591.803280	372.741790	202.789020	588.032290	483.219910	-151.022900	585.770510	411.514830	-99.394840	541.712890	471.028840	-152.348950	504.194000	69.852860	116.542080	647.332210	81.080690	79.140670	642.800780	62.439790	186.713320	792.322140	51.644180	116.878110	263.274870	310.027740	-30.243400	366.641020	175.223450	-26.592460	334.329500	185.243010	-119.256690	408.326230	73.970790	-68.395940	646.669800	1385.497680	48.479240	551.950070	1457.472780	266.188570	572.193050	1504.350460	-149.088330	560.722780	1253.542110	304.280980	587.967220	1266.587520	-192.445630	515.727780	1149.616460	328.516480	538.605960	1173.874630	-235.252760	653.753600	917.786680	326.648160	609.457090	903.604980	372.896300	643.263310	943.645140	-192.555420	604.803410	937.300540	-257.390780	731.668820	39.428260	196.990840	736.668030	50.567330	87.431460	351.316440	121.010760	-136.057140	381.931730	109.768600	-36.985920	685.163880	1646.644780	143.662600	684.691470	1656.447270	4.668750	612.188420	1809.735470	88.498060	
570	9.483000	625.163570	1079.644530	172.244510	618.646910	1070.250850	-88.260600	424.315310	1072.302000	56.628200	613.850890	757.956730	218.939850	674.522770	701.693910	122.140300	617.296570	635.410340	208.740220	617.350830	764.991820	-153.893370	724.636960	748.049680	-110.233860	646.410280	658.652100	-147.892700	561.568600	459.383420	197.301790	634.874760	423.229640	140.373760	574.370060	373.262210	203.930370	605.440060	486.652160	-148.753570	606.281010	415.599240	-97.628590	559.933170	472.779910	-151.028400	484.986020	70.217350	116.561780	628.335140	81.093850	79.370910	624.075260	62.234150	186.857700	773.278440	51.203530	116.926840	286.781100	300.180210	-29.211430	397.367130	171.150100	-23.698770	367.053890	180.370760	-117.226870	445.360630	72.868320	-64.680720	645.955690	1388.166500	49.197660	553.540280	1460.847660	266.845400	569.438660	1506.966920	-148.529850	563.963870	1256.689090	306.513700	583.039370	1268.605590	-193.004380	520.084110	1152.378170	331.373600	532.192810	1176.880370	-235.536220	662.056820	922.856380	327.782990	618.515320	908.023680	374.337920	636.801090	947.695070	-193.110290	597.271670	940.040100	-256.556370	713.199890	39.213520	198.022640	718.208800	50.596630	87.469080	387.558530	115.892080	-133.399080	416.568420	107.034840	-33.707610	685.076900	1649.537600	143.633220	684.515500	1658.276980	4.440600	612.974240	1811.894780	88.538510	
